<svg style="position: absolute; width: 0; height: 0;" width="0" height="0" version="1.1" xmlns="http://www.w3.org/2000/svg" xmlns:xlink="http://www.w3.org/1999/xlink">
<defs>
<symbol id="i-check" viewBox="0 0 1024 1024">
	<title>check</title>
	<path class="path1" d="M954.857 323.429q0 22.857-16 38.857l-491.429 491.429q-16 16-38.857 16t-38.857-16l-284.571-284.571q-16-16-16-38.857t16-38.857l77.714-77.714q16-16 38.857-16t38.857 16l168 168.571 374.857-375.429q16-16 38.857-16t38.857 16l77.714 77.714q16 16 16 38.857z"></path>
</symbol>
<symbol id="i-close" viewBox="0 0 805 1024">
	<title>close</title>
	<path class="path1" d="M741.714 755.429q0 22.857-16 38.857l-77.714 77.714q-16 16-38.857 16t-38.857-16l-168-168-168 168q-16 16-38.857 16t-38.857-16l-77.714-77.714q-16-16-16-38.857t16-38.857l168-168-168-168q-16-16-16-38.857t16-38.857l77.714-77.714q16-16 38.857-16t38.857 16l168 168 168-168q16-16 38.857-16t38.857 16l77.714 77.714q16 16 16 38.857t-16 38.857l-168 168 168 168q16 16 16 38.857z"></path>
</symbol>
<symbol id="i-settings" viewBox="0 0 877.7142857142858 1024">
	<title>settings</title>
	<path class="path1" d="M585.143 512q0-60.571-42.857-103.429t-103.429-42.857-103.429 42.857-42.857 103.429 42.857 103.429 103.429 42.857 103.429-42.857 42.857-103.429zM877.714 449.714v126.857q0 6.857-4.571 13.143t-11.429 7.429l-105.714 16q-10.857 30.857-22.286 52 20 28.571 61.143 78.857 5.714 6.857 5.714 14.286t-5.143 13.143q-15.429 21.143-56.571 61.714t-53.714 40.571q-6.857 0-14.857-5.143l-78.857-61.714q-25.143 13.143-52 21.714-9.143 77.714-16.571 106.286-4 16-20.571 16h-126.857q-8 0-14-4.857t-6.571-12.286l-16-105.143q-28-9.143-51.429-21.143l-80.571 61.143q-5.714 5.143-14.286 5.143-8 0-14.286-6.286-72-65.143-94.286-96-4-5.714-4-13.143 0-6.857 4.571-13.143 8.571-12 29.143-38t30.857-40.286q-15.429-28.571-23.429-56.571l-104.571-15.429q-7.429-1.143-12-7.143t-4.571-13.429v-126.857q0-6.857 4.571-13.143t10.857-7.429l106.286-16q8-26.286 22.286-52.571-22.857-32.571-61.143-78.857-5.714-6.857-5.714-13.714 0-5.714 5.143-13.143 14.857-20.571 56.286-61.429t54-40.857q7.429 0 14.857 5.714l78.857 61.143q25.143-13.143 52-21.714 9.143-77.714 16.571-106.286 4-16 20.571-16h126.857q8 0 14 4.857t6.571 12.286l16 105.143q28 9.143 51.429 21.143l81.143-61.143q5.143-5.143 13.714-5.143 7.429 0 14.286 5.714 73.714 68 94.286 97.143 4 4.571 4 12.571 0 6.857-4.571 13.143-8.571 12-29.143 38t-30.857 40.286q14.857 28.571 23.429 56l104.571 16q7.429 1.143 12 7.143t4.571 13.429z"></path>
</symbol>
<symbol id="i-menu" viewBox="0 0 1024 1024">
	<title>menu</title>
	<path class="path1" d="M1024 768v73.143q0 14.857-10.857 25.714t-25.714 10.857h-950.857q-14.857 0-25.714-10.857t-10.857-25.714v-73.143q0-14.857 10.857-25.714t25.714-10.857h950.857q14.857 0 25.714 10.857t10.857 25.714zM1024 548.571v73.143q0 14.857-10.857 25.714t-25.714 10.857h-950.857q-14.857 0-25.714-10.857t-10.857-25.714v-73.143q0-14.857 10.857-25.714t25.714-10.857h950.857q14.857 0 25.714 10.857t10.857 25.714zM1024 329.143v73.143q0 14.857-10.857 25.714t-25.714 10.857h-950.857q-14.857 0-25.714-10.857t-10.857-25.714v-73.143q0-14.857 10.857-25.714t25.714-10.857h950.857q14.857 0 25.714 10.857t10.857 25.714zM1024 109.714v73.143q0 14.857-10.857 25.714t-25.714 10.857h-950.857q-14.857 0-25.714-10.857t-10.857-25.714v-73.143q0-14.857 10.857-25.714t25.714-10.857h950.857q14.857 0 25.714 10.857t10.857 25.714z"></path>
</symbol>
<symbol id="i-chevron-left" viewBox="0 0 731 1024">
	<title>chevron-left</title>
	<path class="path1" d="M669.143 172l-303.429 303.429 303.429 303.429q10.857 10.857 10.857 25.714t-10.857 25.714l-94.857 94.857q-10.857 10.857-25.714 10.857t-25.714-10.857l-424-424q-10.857-10.857-10.857-25.714t10.857-25.714l424-424q10.857-10.857 25.714-10.857t25.714 10.857l94.857 94.857q10.857 10.857 10.857 25.714t-10.857 25.714z"></path>
</symbol>
<symbol id="i-chevron-right" viewBox="0 0 731 1024">
	<title>chevron-right</title>
	<path class="path1" d="M632.571 501.143l-424 424q-10.857 10.857-25.714 10.857t-25.714-10.857l-94.857-94.857q-10.857-10.857-10.857-25.714t10.857-25.714l303.429-303.429-303.429-303.429q-10.857-10.857-10.857-25.714t10.857-25.714l94.857-94.857q10.857-10.857 25.714-10.857t25.714 10.857l424 424q10.857 10.857 10.857 25.714t-10.857 25.714z"></path>
</symbol>
<symbol id="i-question" viewBox="0 0 877.7142857142858 1024">
	<title>question</title>
	<path class="path1" d="M512 786.286v-109.714q0-8-5.143-13.143t-13.143-5.143h-109.714q-8 0-13.143 5.143t-5.143 13.143v109.714q0 8 5.143 13.143t13.143 5.143h109.714q8 0 13.143-5.143t5.143-13.143zM658.286 402.286q0-50.286-31.714-93.143t-79.143-66.286-97.143-23.429q-138.857 0-212 121.714-8.571 13.714 4.571 24l75.429 57.143q4 3.429 10.857 3.429 9.143 0 14.286-6.857 30.286-38.857 49.143-52.571 19.429-13.714 49.143-13.714 27.429 0 48.857 14.857t21.429 33.714q0 21.714-11.429 34.857t-38.857 25.714q-36 16-66 49.429t-30 71.714v20.571q0 8 5.143 13.143t13.143 5.143h109.714q8 0 13.143-5.143t5.143-13.143q0-10.857 12.286-28.286t31.143-28.286q18.286-10.286 28-16.286t26.286-20 25.429-27.429 16-34.571 7.143-46.286zM877.714 512q0 119.429-58.857 220.286t-159.714 159.714-220.286 58.857-220.286-58.857-159.714-159.714-58.857-220.286 58.857-220.286 159.714-159.714 220.286-58.857 220.286 58.857 159.714 159.714 58.857 220.286z"></path>
</symbol>
<symbol id="i-info" viewBox="0 0 877.7142857142858 1024">
	<title>info</title>
	<path class="path1" d="M585.143 786.286v-91.429q0-8-5.143-13.143t-13.143-5.143h-54.857v-292.571q0-8-5.143-13.143t-13.143-5.143h-182.857q-8 0-13.143 5.143t-5.143 13.143v91.429q0 8 5.143 13.143t13.143 5.143h54.857v182.857h-54.857q-8 0-13.143 5.143t-5.143 13.143v91.429q0 8 5.143 13.143t13.143 5.143h256q8 0 13.143-5.143t5.143-13.143zM512 274.286v-91.429q0-8-5.143-13.143t-13.143-5.143h-109.714q-8 0-13.143 5.143t-5.143 13.143v91.429q0 8 5.143 13.143t13.143 5.143h109.714q8 0 13.143-5.143t5.143-13.143zM877.714 512q0 119.429-58.857 220.286t-159.714 159.714-220.286 58.857-220.286-58.857-159.714-159.714-58.857-220.286 58.857-220.286 159.714-159.714 220.286-58.857 220.286 58.857 159.714 159.714 58.857 220.286z"></path>
</symbol>
<symbol id="i-chevron-down" viewBox="0 0 1024 1024">
	<title>chevron-down</title>
	<path class="path1" d="M961.714 461.714l-424 423.429q-10.857 10.857-25.714 10.857t-25.714-10.857l-424-423.429q-10.857-10.857-10.857-26t10.857-26l94.857-94.286q10.857-10.857 25.714-10.857t25.714 10.857l303.429 303.429 303.429-303.429q10.857-10.857 25.714-10.857t25.714 10.857l94.857 94.286q10.857 10.857 10.857 26t-10.857 26z"></path>
</symbol>
<symbol id="i-share" viewBox="0 0 877.7142857142858 1024">
	<title>share</title>
	<path class="path1" d="M694.857 585.143q76 0 129.429 53.429t53.429 129.429-53.429 129.429-129.429 53.429-129.429-53.429-53.429-129.429q0-6.857 1.143-19.429l-205.714-102.857q-52.571 49.143-124.571 49.143-76 0-129.429-53.429t-53.429-129.429 53.429-129.429 129.429-53.429q72 0 124.571 49.143l205.714-102.857q-1.143-12.571-1.143-19.429 0-76 53.429-129.429t129.429-53.429 129.429 53.429 53.429 129.429-53.429 129.429-129.429 53.429q-72 0-124.571-49.143l-205.714 102.857q1.143 12.571 1.143 19.429t-1.143 19.429l205.714 102.857q52.571-49.143 124.571-49.143z"></path>
</symbol>
<symbol id="i-arrow-up" viewBox="0 0 951 1024">
	<title>arrow-up</title>
	<path class="path1" d="M920.571 554.857q0 29.143-21.143 51.429l-42.857 42.857q-21.714 21.714-52 21.714-30.857 0-51.429-21.714l-168-167.429v402.286q0 29.714-21.429 48.286t-51.714 18.571h-73.143q-30.286 0-51.714-18.571t-21.429-48.286v-402.286l-168 167.429q-20.571 21.714-51.429 21.714t-51.429-21.714l-42.857-42.857q-21.714-21.714-21.714-51.429 0-30.286 21.714-52l372-372q20-21.143 51.429-21.143 30.857 0 52 21.143l372 372q21.143 22.286 21.143 52z"></path>
</symbol>
<symbol id="i-refresh" viewBox="0 0 877.7142857142858 1024">
	<title>refresh</title>
	<path class="path1" d="M863.429 603.429q0 2.857-0.571 4-36.571 153.143-153.143 248.286t-273.143 95.143q-83.429 0-161.429-31.429t-139.143-89.714l-73.714 73.714q-10.857 10.857-25.714 10.857t-25.714-10.857-10.857-25.714v-256q0-14.857 10.857-25.714t25.714-10.857h256q14.857 0 25.714 10.857t10.857 25.714-10.857 25.714l-78.286 78.286q40.571 37.714 92 58.286t106.857 20.571q76.571 0 142.857-37.143t106.286-102.286q6.286-9.714 30.286-66.857 4.571-13.143 17.143-13.143h109.714q7.429 0 12.857 5.429t5.429 12.857zM877.714 146.286v256q0 14.857-10.857 25.714t-25.714 10.857h-256q-14.857 0-25.714-10.857t-10.857-25.714 10.857-25.714l78.857-78.857q-84.571-78.286-199.429-78.286-76.571 0-142.857 37.143t-106.286 102.286q-6.286 9.714-30.286 66.857-4.571 13.143-17.143 13.143h-113.714q-7.429 0-12.857-5.429t-5.429-12.857v-4q37.143-153.143 154.286-248.286t274.286-95.143q83.429 0 162.286 31.714t140 89.429l74.286-73.714q10.857-10.857 25.714-10.857t25.714 10.857 10.857 25.714z"></path>
</symbol>
<symbol id="i-list" viewBox="0 0 32 32">
	<title>list</title>
	<path class="path1" d="M0 0h8v8h-8zM12 2h20v4h-20zM0 12h8v8h-8zM12 14h20v4h-20zM0 24h8v8h-8zM12 26h20v4h-20z"></path>
</symbol>
<symbol id="i-list-open" viewBox="0 0 32 32">
	<title>list-open</title>
	<path class="path1" d="M0 0h8.016v8.016h-8.016v-8.016zM12.023 0h20.039v4.008h-20.039v-4.008zM12.023 6.012h20.039v10.020h-20.039v-10.020z"></path>
	<path class="path2" d="M0 20.039h8.016v8.016h-8.016v-8.016zM12.023 20.039h20.039v4.008h-20.039v-4.008zM12.023 26.051h20.039v5.949h-20.039v-5.949z"></path>
</symbol>
<symbol id="i-plus" viewBox="0 0 16 16">
	<title>plus</title>
	<path class="path1" d="M15.5 6h-5.5v-5.5c0-0.276-0.224-0.5-0.5-0.5h-3c-0.276 0-0.5 0.224-0.5 0.5v5.5h-5.5c-0.276 0-0.5 0.224-0.5 0.5v3c0 0.276 0.224 0.5 0.5 0.5h5.5v5.5c0 0.276 0.224 0.5 0.5 0.5h3c0.276 0 0.5-0.224 0.5-0.5v-5.5h5.5c0.276 0 0.5-0.224 0.5-0.5v-3c0-0.276-0.224-0.5-0.5-0.5z"></path>
</symbol>
<symbol id="i-minus" viewBox="0 0 16 16">
	<title>minus</title>
	<path class="path1" d="M0 6.5v3c0 0.276 0.224 0.5 0.5 0.5h15c0.276 0 0.5-0.224 0.5-0.5v-3c0-0.276-0.224-0.5-0.5-0.5h-15c-0.276 0-0.5 0.224-0.5 0.5z"></path>
</symbol>
</defs>
</svg>
