<?xml version="1.0" encoding="UTF-8"?>
<svg width="110px" height="75px" viewBox="0 0 110 75" version="1.1" xmlns="http://www.w3.org/2000/svg" xmlns:xlink="http://www.w3.org/1999/xlink">
    <!-- Generator: Sketch 55.1 (78136) - https://sketchapp.com -->
    <title>W3C</title>
    <desc>Created with Sketch.</desc>
    <g id="Page-1" stroke="none" stroke-width="1" fill="none" fill-rule="evenodd">
        <rect id="Rectangle" fill="#015A9C" x="0" y="0" width="290" height="75"></rect>
        <g id="Group" transform="translate(14.000000, 9.000000)" fill="#FFFFFF" fill-rule="nonzero">
            <g id="w3c" transform="translate(0.000000, 7.000000)">
                <path d="M21.759911,2.42958349e-15 L29.5507303,26.78023 L37.3415495,2.42958349e-15 L42.9827574,2.42958349e-15 L58.4642882,2.42958349e-15 L58.4642882,2.6616102 L50.511132,16.5140193 C53.3046798,17.4208269 55.4177653,19.0689462 56.8503886,21.4583774 C58.2830119,23.8491763 59,26.6543985 59,29.8767796 C59,33.8623562 57.9515741,37.2119366 55.856075,39.9268884 C53.760576,42.6418402 51.0468438,44 47.7162314,44 C45.208126,44 43.0233417,43.1944047 41.1618783,41.5832142 C39.2990622,39.9720236 37.9205512,37.790488 37.0249925,35.0372397 L41.4297343,33.1907989 C42.0750235,34.8566988 42.9259395,36.1697233 43.9824823,37.1285048 C45.0390251,38.088654 46.2836081,38.5673609 47.7162314,38.5673609 C49.2205535,38.5673609 50.4921927,37.7166304 51.531149,36.0151694 C52.5701052,34.3123407 53.0895834,32.2675785 53.0895834,29.8754119 C53.0895834,27.2315822 52.5335794,25.1854523 51.4242772,23.7370221 C50.1336987,22.0355611 48.1098984,21.1834629 45.3515236,21.1834629 L43.2032651,21.1834629 L43.2032651,18.576562 L50.7248756,5.42990364 L41.6448307,5.42990364 L41.1280581,6.31893068 L30.0850893,43.9972645 L29.5480247,43.9972645 L21.4879967,16.7287535 L13.4293215,43.9972645 L12.8922569,43.9972645 L0,2.42958349e-15 L5.6412079,2.42958349e-15 L13.4320271,26.78023 L18.6971545,8.74665838 L16.1187031,0 L21.759911,0 L21.759911,2.42958349e-15 Z" id="Shape"></path>
                <path d="M87.9881579,0 C86.9105263,0 85.9434211,0.388221747 85.2105263,1.1330811 C84.4328947,1.92268465 84,2.94390525 84,3.999342 C84,5.05477875 84.4118421,6.03257115 85.1671053,6.7998026 C85.9342105,7.5775621 86.9223684,8 87.9894737,8 C89.0328947,8 90.0447368,7.5775621 90.8328947,6.81164665 C91.5881579,6.07863135 92,5.10083895 92,4.000658 C92,2.9333772 91.5776316,1.93452871 90.8447368,1.18966935 C90.0763158,0.410593848 89.0763158,0 87.9881579,0 Z M91.4657895,4.03355815 C91.4657895,4.9560783 91.1092105,5.81148215 90.4552632,6.444481 C89.7657895,7.111696 88.9105263,7.4670176 87.9657895,7.4670176 C87.0776316,7.4670176 86.2,7.10116796 85.5447368,6.43395295 C84.8894737,5.76673795 84.5223684,4.9113341 84.5223684,4.000658 C84.5223684,3.0899819 84.9,2.2003619 85.5776316,1.5120908 C86.2105263,0.867247903 87.0657895,0.523770357 87.9986842,0.523770357 C88.9539474,0.523770357 89.8092105,0.880407962 90.4763158,1.55683501 C91.1210526,2.2003619 91.4657895,3.0662938 91.4657895,4.03355815 Z M88.0986842,1.65553545 L86.3881579,1.65553545 L86.3881579,6.18917585 L87.2434211,6.18917585 L87.2434211,4.25596315 L88.0881579,4.25596315 L89.0105263,6.18917585 L89.9657895,6.18917585 L88.9539474,4.12304655 C89.6092105,3.98881395 89.9868421,3.54531995 89.9868421,2.90047705 C89.9868421,2.07797335 89.3657895,1.65553545 88.0986842,1.65553545 Z M87.9434211,2.21088995 C88.7434211,2.21088995 89.1092105,2.43329495 89.1092105,2.98864945 C89.1092105,3.52163185 88.7434211,3.7111367 87.9644737,3.7111367 L87.2421053,3.7111367 L87.2421053,2.21088995 L87.9434211,2.21088995 L87.9434211,2.21088995 Z" id="Shape"></path>
                <path d="M82.1371237,0 L83,5.91408 L79.948022,12.50208 C79.948022,12.50208 78.7762462,9.70704 76.8296688,8.16048 C75.1894381,6.85728 74.1210543,6.5736 72.4501889,6.9624 C70.3044862,7.46208 67.8715836,10.35648 66.809582,13.9248 C65.5395201,18.1944 65.5267556,20.2608 65.4820801,22.15872 C65.4105992,25.20144 65.8356551,27 65.8356551,27 C65.8356551,27 63.9822582,23.13216 64.0001284,17.4672 C64.0116164,13.42368 64.5758047,9.75744 66.2339057,6.13872 C67.6928814,2.95776 69.8615601,1.04832 71.7864379,0.82368 C73.7764144,0.59184 75.3489936,1.67328 76.5641685,2.844 C77.8406126,4.07376 79.1298213,6.76224 79.1298213,6.76224 L82.1371237,0 Z" id="Shape"></path>
                <path d="M82.2301013,31.8236212 C82.2301013,31.8236212 80.8916425,34.3909817 80.0584298,35.3804145 C79.2239508,36.3698472 77.7322721,38.1122274 75.8898336,38.9834175 C74.0473951,39.8546076 73.0812229,40.01906 71.2603111,39.8315027 C69.4406657,39.6439454 67.7501809,38.5131652 67.1575615,38.0415537 C66.5649421,37.5699422 65.0504703,36.1809308 64.1944645,34.8856981 C63.3384588,33.5904654 62,31 62,31 C62,31 62.7458394,33.5959019 63.213097,34.6981408 C63.4815485,35.3328456 64.3071635,37.2722969 65.4784732,38.9603126 C66.5712735,40.5355222 68.6935601,43.2469485 71.9187771,43.8585484 C75.1439942,44.4715074 77.3599855,42.9166845 77.9082851,42.5402108 C78.4565847,42.1637371 79.612699,41.1240172 80.3446093,40.2840867 C81.1081766,39.4074601 81.8312229,38.2889118 82.2313676,37.6175111 C82.5238784,37.1282311 83,36.1333619 83,36.1333619 L82.2301013,31.8236212 Z" id="Shape"></path>
            </g>
        </g>
    </g>
</svg>