<?xml version="1.0" encoding="UTF-8"?>
<svg width="180px" height="75px" viewBox="0 0 180 75" version="1.1" xmlns="http://www.w3.org/2000/svg" xmlns:xlink="http://www.w3.org/1999/xlink">
    <!-- Generator: Sketch 55.1 (78136) - https://sketchapp.com -->
    <title>WAI</title>
    <desc>Created with Sketch.</desc>
    <g id="Page-1" stroke="none" stroke-width="1" fill="none" fill-rule="evenodd">
        <rect id="Rectangle" fill="#015A9C" x="-110" y="0" width="290" height="75"></rect>
        <g id="Group" transform="translate(-96.000000, 9.000000)">
            <path d="M101,30 L261,30" id="Line" stroke="#EED009" stroke-width="2" stroke-linecap="square"></path>
            <path d="M115.541016,21 L113.724609,21 L110.941406,11.6445312 C110.531248,10.2512951 110.290365,9.31054932 110.21875,8.82226562 C110.114583,9.57096729 109.886721,10.5312441 109.535156,11.703125 L106.839844,21 L105.023438,21 L101.244141,6.72265625 L103.119141,6.72265625 L105.335938,15.4433594 C105.635418,16.582688 105.86328,17.7154892 106.019531,18.8417969 C106.162761,17.7740832 106.416665,16.6054751 106.78125,15.3359375 L109.300781,6.72265625 L111.15625,6.72265625 L113.783203,15.4042969 C114.121746,16.5306046 114.382161,17.6764265 114.564453,18.8417969 C114.66862,17.9433549 114.899738,16.8040434 115.257812,15.4238281 L117.464844,6.72265625 L119.339844,6.72265625 L115.541016,21 Z M125.667969,21.1953125 C124.059888,21.1953125 122.798507,20.7086637 121.883789,19.7353516 C120.969071,18.7620394 120.511719,17.4225346 120.511719,15.7167969 C120.511719,13.9980383 120.938147,12.6292369 121.791016,11.6103516 C122.643884,10.5914663 123.796217,10.0820312 125.248047,10.0820312 C126.59571,10.0820312 127.669918,10.5165972 128.470703,11.3857422 C129.271488,12.2548872 129.671875,13.4316332 129.671875,14.9160156 L129.671875,15.9804688 L122.328125,15.9804688 C122.360677,17.1979228 122.669919,18.1223927 123.255859,18.7539062 C123.8418,19.3854198 124.67187,19.7011719 125.746094,19.7011719 C126.319013,19.7011719 126.862628,19.6507167 127.376953,19.5498047 C127.891279,19.4488927 128.493486,19.2519546 129.183594,18.9589844 L129.183594,20.5019531 C128.591143,20.7558606 128.034508,20.9348953 127.513672,21.0390625 C126.992836,21.1432297 126.377608,21.1953125 125.667969,21.1953125 Z M125.228516,11.5175781 C124.388668,11.5175781 123.724612,11.7877577 123.236328,12.328125 C122.748044,12.8684923 122.458334,13.6204379 122.367188,14.5839844 L127.826172,14.5839844 C127.813151,13.5813752 127.582033,12.8196641 127.132812,12.2988281 C126.683592,11.7779922 126.048832,11.5175781 125.228516,11.5175781 Z M137.464844,10.1015625 C138.877611,10.1015625 139.968095,10.5882113 140.736328,11.5615234 C141.504561,12.5348356 141.888672,13.8938715 141.888672,15.6386719 C141.888672,17.4095141 141.498051,18.7783155 140.716797,19.7451172 C139.935543,20.7119189 138.851569,21.1953125 137.464844,21.1953125 C136.742184,21.1953125 136.097659,21.0651055 135.53125,20.8046875 C134.964841,20.5442695 134.502606,20.1569036 134.144531,19.6425781 L134.007812,19.6425781 C133.805989,20.423832 133.685547,20.8763015 133.646484,21 L132.386719,21 L132.386719,5.8046875 L134.144531,5.8046875 L134.144531,9.49609375 C134.144531,10.2317745 134.111979,10.9674442 134.046875,11.703125 L134.144531,11.703125 C134.867191,10.6354113 135.973951,10.1015625 137.464844,10.1015625 Z M137.171875,11.5566406 C136.09114,11.5566406 135.316409,11.8626271 134.847656,12.4746094 C134.378904,13.0865916 134.144531,14.1217375 134.144531,15.5800781 L134.144531,15.6582031 C134.144531,17.1230542 134.383787,18.1695932 134.862305,18.7978516 C135.340823,19.4261099 136.123692,19.7402344 137.210938,19.7402344 C138.174484,19.7402344 138.89225,19.3870478 139.364258,18.6806641 C139.836265,17.9742803 140.072266,16.9537827 140.072266,15.6191406 C140.072266,14.2649672 139.834638,13.2493523 139.359375,12.5722656 C138.884112,11.8951789 138.154953,11.5566406 137.171875,11.5566406 Z M159.085938,21 L157.367188,16.5761719 L151.703125,16.5761719 L150.003906,21 L148.1875,21 L153.763672,6.6640625 L155.384766,6.6640625 L160.951172,21 L159.085938,21 Z M156.830078,14.984375 L155.228516,10.6582031 L154.544922,8.51953125 C154.349608,9.30078516 154.144532,10.0136687 153.929688,10.6582031 L152.308594,14.984375 L156.830078,14.984375 Z M166.966797,21.1953125 C165.42382,21.1953125 164.222661,20.7216844 163.363281,19.7744141 C162.503902,18.8271437 162.074219,17.4681078 162.074219,15.6972656 C162.074219,13.9003816 162.508785,12.5153043 163.37793,11.5419922 C164.247075,10.56868 165.485669,10.0820312 167.09375,10.0820312 C167.614586,10.0820312 168.130531,10.1357417 168.641602,10.2431641 C169.152672,10.3505865 169.574219,10.4889314 169.90625,10.6582031 L169.369141,12.1230469 C168.464188,11.7845035 167.692712,11.6152344 167.054688,11.6152344 C165.973953,11.6152344 165.176435,11.9554002 164.662109,12.6357422 C164.147784,13.3160841 163.890625,14.3300714 163.890625,15.6777344 C163.890625,16.9733138 164.147784,17.9645148 164.662109,18.6513672 C165.176435,19.3382196 165.938146,19.6816406 166.947266,19.6816406 C167.891281,19.6816406 168.819006,19.4733094 169.730469,19.0566406 L169.730469,20.6191406 C168.988278,21.0032571 168.067063,21.1953125 166.966797,21.1953125 Z M176.566406,21.1953125 C175.02343,21.1953125 173.82227,20.7216844 172.962891,19.7744141 C172.103511,18.8271437 171.673828,17.4681078 171.673828,15.6972656 C171.673828,13.9003816 172.108394,12.5153043 172.977539,11.5419922 C173.846684,10.56868 175.085278,10.0820312 176.693359,10.0820312 C177.214195,10.0820312 177.730141,10.1357417 178.241211,10.2431641 C178.752281,10.3505865 179.173828,10.4889314 179.505859,10.6582031 L178.96875,12.1230469 C178.063798,11.7845035 177.292321,11.6152344 176.654297,11.6152344 C175.573562,11.6152344 174.776044,11.9554002 174.261719,12.6357422 C173.747393,13.3160841 173.490234,14.3300714 173.490234,15.6777344 C173.490234,16.9733138 173.747393,17.9645148 174.261719,18.6513672 C174.776044,19.3382196 175.537755,19.6816406 176.546875,19.6816406 C177.49089,19.6816406 178.418615,19.4733094 179.330078,19.0566406 L179.330078,20.6191406 C178.587887,21.0032571 177.666672,21.1953125 176.566406,21.1953125 Z M186.429688,21.1953125 C184.821607,21.1953125 183.560226,20.7086637 182.645508,19.7353516 C181.73079,18.7620394 181.273438,17.4225346 181.273438,15.7167969 C181.273438,13.9980383 181.699866,12.6292369 182.552734,11.6103516 C183.405603,10.5914663 184.557935,10.0820312 186.009766,10.0820312 C187.357429,10.0820312 188.431637,10.5165972 189.232422,11.3857422 C190.033207,12.2548872 190.433594,13.4316332 190.433594,14.9160156 L190.433594,15.9804688 L183.089844,15.9804688 C183.122396,17.1979228 183.431638,18.1223927 184.017578,18.7539062 C184.603519,19.3854198 185.433588,19.7011719 186.507812,19.7011719 C187.080732,19.7011719 187.624346,19.6507167 188.138672,19.5498047 C188.652997,19.4488927 189.255205,19.2519546 189.945312,18.9589844 L189.945312,20.5019531 C189.352862,20.7558606 188.796227,20.9348953 188.275391,21.0390625 C187.754555,21.1432297 187.139326,21.1953125 186.429688,21.1953125 Z M185.990234,11.5175781 C185.150386,11.5175781 184.486331,11.7877577 183.998047,12.328125 C183.509763,12.8684923 183.220053,13.6204379 183.128906,14.5839844 L188.587891,14.5839844 C188.57487,13.5813752 188.343752,12.8196641 187.894531,12.2988281 C187.44531,11.7779922 186.810551,11.5175781 185.990234,11.5175781 Z M200.130859,18.0410156 C200.130859,19.0436248 199.756514,19.8199842 199.007812,20.3701172 C198.259111,20.9202501 197.207689,21.1953125 195.853516,21.1953125 C194.440748,21.1953125 193.317712,20.9707054 192.484375,20.5214844 L192.484375,18.9199219 C193.662766,19.4928414 194.798823,19.7792969 195.892578,19.7792969 C196.777999,19.7792969 197.422524,19.6360691 197.826172,19.3496094 C198.22982,19.0631496 198.431641,18.6790389 198.431641,18.1972656 C198.431641,17.7740864 198.237958,17.4160171 197.850586,17.1230469 C197.463214,16.8300767 196.774745,16.4947936 195.785156,16.1171875 C194.776037,15.7265605 194.066408,15.392905 193.65625,15.1162109 C193.246092,14.8395168 192.944988,14.5286476 192.75293,14.1835938 C192.560871,13.8385399 192.464844,13.4186223 192.464844,12.9238281 C192.464844,12.0449175 192.822913,11.351565 193.539062,10.84375 C194.255212,10.335935 195.238275,10.0820312 196.488281,10.0820312 C197.705735,10.0820312 198.845047,10.3229143 199.90625,10.8046875 L199.310547,12.2011719 C198.223302,11.7454404 197.243494,11.5175781 196.371094,11.5175781 C195.641923,11.5175781 195.088544,11.6331369 194.710938,11.8642578 C194.333331,12.0953788 194.144531,12.4127584 194.144531,12.8164062 C194.144531,13.2070332 194.30729,13.5309232 194.632812,13.7880859 C194.958335,14.0452487 195.716791,14.4016904 196.908203,14.8574219 C197.800135,15.1894548 198.459308,15.4986965 198.885742,15.7851562 C199.312177,16.071616 199.626301,16.3938784 199.828125,16.7519531 C200.029949,17.1100278 200.130859,17.539711 200.130859,18.0410156 Z M209.710938,18.0410156 C209.710938,19.0436248 209.336592,19.8199842 208.587891,20.3701172 C207.839189,20.9202501 206.787767,21.1953125 205.433594,21.1953125 C204.020826,21.1953125 202.897791,20.9707054 202.064453,20.5214844 L202.064453,18.9199219 C203.242844,19.4928414 204.378901,19.7792969 205.472656,19.7792969 C206.358077,19.7792969 207.002602,19.6360691 207.40625,19.3496094 C207.809898,19.0631496 208.011719,18.6790389 208.011719,18.1972656 C208.011719,17.7740864 207.818036,17.4160171 207.430664,17.1230469 C207.043292,16.8300767 206.354823,16.4947936 205.365234,16.1171875 C204.356115,15.7265605 203.646486,15.392905 203.236328,15.1162109 C202.82617,14.8395168 202.525066,14.5286476 202.333008,14.1835938 C202.14095,13.8385399 202.044922,13.4186223 202.044922,12.9238281 C202.044922,12.0449175 202.402991,11.351565 203.119141,10.84375 C203.83529,10.335935 204.818353,10.0820312 206.068359,10.0820312 C207.285813,10.0820312 208.425125,10.3229143 209.486328,10.8046875 L208.890625,12.2011719 C207.80338,11.7454404 206.823572,11.5175781 205.951172,11.5175781 C205.222002,11.5175781 204.668622,11.6331369 204.291016,11.8642578 C203.91341,12.0953788 203.724609,12.4127584 203.724609,12.8164062 C203.724609,13.2070332 203.887368,13.5309232 204.212891,13.7880859 C204.538413,14.0452487 205.296869,14.4016904 206.488281,14.8574219 C207.380213,15.1894548 208.039386,15.4986965 208.46582,15.7851562 C208.892255,16.071616 209.206379,16.3938784 209.408203,16.7519531 C209.610027,17.1100278 209.710938,17.539711 209.710938,18.0410156 Z M214.066406,21 L212.308594,21 L212.308594,10.2773438 L214.066406,10.2773438 L214.066406,21 Z M212.171875,7.37695312 C212.171875,6.98632617 212.271158,6.70312588 212.469727,6.52734375 C212.668295,6.35156162 212.914061,6.26367188 213.207031,6.26367188 C213.48047,6.26367188 213.719726,6.35156162 213.924805,6.52734375 C214.129884,6.70312588 214.232422,6.98632617 214.232422,7.37695312 C214.232422,7.76106963 214.129884,8.04426992 213.924805,8.2265625 C213.719726,8.40885508 213.48047,8.5 213.207031,8.5 C212.914061,8.5 212.668295,8.40885508 212.469727,8.2265625 C212.271158,8.04426992 212.171875,7.76106963 212.171875,7.37695312 Z M222.542969,10.1015625 C223.955736,10.1015625 225.04622,10.5882113 225.814453,11.5615234 C226.582686,12.5348356 226.966797,13.8938715 226.966797,15.6386719 C226.966797,17.4095141 226.576176,18.7783155 225.794922,19.7451172 C225.013668,20.7119189 223.929694,21.1953125 222.542969,21.1953125 C221.820309,21.1953125 221.175784,21.0651055 220.609375,20.8046875 C220.042966,20.5442695 219.580731,20.1569036 219.222656,19.6425781 L219.085938,19.6425781 C218.884114,20.423832 218.763672,20.8763015 218.724609,21 L217.464844,21 L217.464844,5.8046875 L219.222656,5.8046875 L219.222656,9.49609375 C219.222656,10.2317745 219.190104,10.9674442 219.125,11.703125 L219.222656,11.703125 C219.945316,10.6354113 221.052076,10.1015625 222.542969,10.1015625 Z M222.25,11.5566406 C221.169265,11.5566406 220.394534,11.8626271 219.925781,12.4746094 C219.457029,13.0865916 219.222656,14.1217375 219.222656,15.5800781 L219.222656,15.6582031 C219.222656,17.1230542 219.461912,18.1695932 219.94043,18.7978516 C220.418948,19.4261099 221.201817,19.7402344 222.289062,19.7402344 C223.252609,19.7402344 223.970375,19.3870478 224.442383,18.6806641 C224.91439,17.9742803 225.150391,16.9537827 225.150391,15.6191406 C225.150391,14.2649672 224.912763,13.2493523 224.4375,12.5722656 C223.962237,11.8951789 223.233078,11.5566406 222.25,11.5566406 Z M231.527344,21 L229.769531,21 L229.769531,10.2773438 L231.527344,10.2773438 L231.527344,21 Z M229.632812,7.37695312 C229.632812,6.98632617 229.732095,6.70312588 229.930664,6.52734375 C230.129233,6.35156162 230.374999,6.26367188 230.667969,6.26367188 C230.941408,6.26367188 231.180663,6.35156162 231.385742,6.52734375 C231.590821,6.70312588 231.693359,6.98632617 231.693359,7.37695312 C231.693359,7.76106963 231.590821,8.04426992 231.385742,8.2265625 C231.180663,8.40885508 230.941408,8.5 230.667969,8.5 C230.374999,8.5 230.129233,8.40885508 229.930664,8.2265625 C229.732095,8.04426992 229.632812,7.76106963 229.632812,7.37695312 Z M236.683594,21 L234.925781,21 L234.925781,5.8046875 L236.683594,5.8046875 L236.683594,21 Z M241.839844,21 L240.082031,21 L240.082031,10.2773438 L241.839844,10.2773438 L241.839844,21 Z M239.945312,7.37695312 C239.945312,6.98632617 240.044595,6.70312588 240.243164,6.52734375 C240.441733,6.35156162 240.687499,6.26367188 240.980469,6.26367188 C241.253908,6.26367188 241.493163,6.35156162 241.698242,6.52734375 C241.903321,6.70312588 242.005859,6.98632617 242.005859,7.37695312 C242.005859,7.76106963 241.903321,8.04426992 241.698242,8.2265625 C241.493163,8.40885508 241.253908,8.5 240.980469,8.5 C240.687499,8.5 240.441733,8.40885508 240.243164,8.2265625 C240.044595,8.04426992 239.945312,7.76106963 239.945312,7.37695312 Z M248.822266,19.7597656 C249.050131,19.7597656 249.317056,19.7369794 249.623047,19.6914062 C249.929038,19.6458331 250.160155,19.5937503 250.316406,19.5351562 L250.316406,20.8828125 C250.153645,20.9544274 249.901369,21.0244137 249.55957,21.0927734 C249.217772,21.1611332 248.871096,21.1953125 248.519531,21.1953125 C246.423167,21.1953125 245.375,20.0918079 245.375,17.8847656 L245.375,11.6445312 L243.861328,11.6445312 L243.861328,10.8046875 L245.394531,10.1015625 L246.097656,7.81640625 L247.142578,7.81640625 L247.142578,10.2773438 L250.238281,10.2773438 L250.238281,11.6445312 L247.142578,11.6445312 L247.142578,17.8359375 C247.142578,18.4544302 247.290689,18.9296858 247.586914,19.2617188 C247.88314,19.5937517 248.294919,19.7597656 248.822266,19.7597656 Z M250.775391,10.2773438 L252.660156,10.2773438 L254.974609,16.3808594 C255.462893,17.708991 255.762369,18.6822886 255.873047,19.3007812 L255.951172,19.3007812 C256.009766,19.0598946 256.143228,18.6090528 256.351562,17.9482422 C256.559897,17.2874316 256.735676,16.7584655 256.878906,16.3613281 L259.056641,10.2773438 L260.951172,10.2773438 L256.332031,22.484375 C255.88281,23.6692768 255.348961,24.5188776 254.730469,25.0332031 C254.111976,25.5475286 253.34701,25.8046875 252.435547,25.8046875 C251.947263,25.8046875 251.462242,25.7493495 250.980469,25.6386719 L250.980469,24.2421875 C251.305991,24.3203129 251.696612,24.359375 252.152344,24.359375 C252.712242,24.359375 253.187498,24.2047542 253.578125,23.8955078 C253.968752,23.5862615 254.287759,23.1093782 254.535156,22.4648438 L255.091797,21.0390625 L250.775391,10.2773438 Z" id="WebAccessibility" fill="#FFFFFF" fill-rule="nonzero"></path>
            <path d="M106.957031,51 L101.800781,51 L101.800781,49.9648438 L103.480469,49.5839844 L103.480469,38.1582031 L101.800781,37.7578125 L101.800781,36.7226562 L106.957031,36.7226562 L106.957031,37.7578125 L105.277344,38.1582031 L105.277344,49.5839844 L106.957031,49.9648438 L106.957031,51 Z M116.78125,51 L116.78125,44.1445312 C116.78125,43.2721311 116.587567,42.6227235 116.200195,42.1962891 C115.812824,41.7698546 115.205733,41.5566406 114.378906,41.5566406 C113.27864,41.5566406 112.479495,41.8609996 111.981445,42.4697266 C111.483396,43.0784536 111.234375,44.0696546 111.234375,45.4433594 L111.234375,51 L109.476562,51 L109.476562,40.2773438 L110.892578,40.2773438 L111.15625,41.7421875 L111.253906,41.7421875 C111.585939,41.2148411 112.051429,40.8063166 112.650391,40.5166016 C113.249352,40.2268866 113.910153,40.0820312 114.632812,40.0820312 C115.947923,40.0820312 116.924476,40.4010385 117.5625,41.0390625 C118.200524,41.6770865 118.519531,42.6699151 118.519531,44.0175781 L118.519531,51 L116.78125,51 Z M123.597656,51 L121.839844,51 L121.839844,40.2773438 L123.597656,40.2773438 L123.597656,51 Z M121.703125,37.3769531 C121.703125,36.9863262 121.802408,36.7031259 122.000977,36.5273438 C122.199545,36.3515616 122.445311,36.2636719 122.738281,36.2636719 C123.01172,36.2636719 123.250976,36.3515616 123.456055,36.5273438 C123.661134,36.7031259 123.763672,36.9863262 123.763672,37.3769531 C123.763672,37.7610696 123.661134,38.0442699 123.456055,38.2265625 C123.250976,38.4088551 123.01172,38.5 122.738281,38.5 C122.445311,38.5 122.199545,38.4088551 122.000977,38.2265625 C121.802408,38.0442699 121.703125,37.7610696 121.703125,37.3769531 Z M130.580078,49.7597656 C130.807944,49.7597656 131.074868,49.7369794 131.380859,49.6914062 C131.68685,49.6458331 131.917968,49.5937503 132.074219,49.5351562 L132.074219,50.8828125 C131.911458,50.9544274 131.659181,51.0244137 131.317383,51.0927734 C130.975584,51.1611332 130.628908,51.1953125 130.277344,51.1953125 C128.180979,51.1953125 127.132812,50.0918079 127.132812,47.8847656 L127.132812,41.6445312 L125.619141,41.6445312 L125.619141,40.8046875 L127.152344,40.1015625 L127.855469,37.8164062 L128.900391,37.8164062 L128.900391,40.2773438 L131.996094,40.2773438 L131.996094,41.6445312 L128.900391,41.6445312 L128.900391,47.8359375 C128.900391,48.4544302 129.048501,48.9296858 129.344727,49.2617188 C129.640952,49.5937517 130.052732,49.7597656 130.580078,49.7597656 Z M135.970703,51 L134.212891,51 L134.212891,40.2773438 L135.970703,40.2773438 L135.970703,51 Z M134.076172,37.3769531 C134.076172,36.9863262 134.175455,36.7031259 134.374023,36.5273438 C134.572592,36.3515616 134.818358,36.2636719 135.111328,36.2636719 C135.384767,36.2636719 135.624022,36.3515616 135.829102,36.5273438 C136.034181,36.7031259 136.136719,36.9863262 136.136719,37.3769531 C136.136719,37.7610696 136.034181,38.0442699 135.829102,38.2265625 C135.624022,38.4088551 135.384767,38.5 135.111328,38.5 C134.818358,38.5 134.572592,38.4088551 134.374023,38.2265625 C134.175455,38.0442699 134.076172,37.7610696 134.076172,37.3769531 Z M145.990234,51 L145.648438,49.4765625 L145.570312,49.4765625 C145.036456,50.1471388 144.504234,50.6012358 143.973633,50.8388672 C143.443031,51.0764986 142.774093,51.1953125 141.966797,51.1953125 C140.912104,51.1953125 140.085289,50.9186226 139.486328,50.3652344 C138.887367,49.8118462 138.587891,49.030604 138.587891,48.0214844 C138.587891,45.8469943 140.303368,44.7076828 143.734375,44.6035156 L145.550781,44.5351562 L145.550781,43.9003906 C145.550781,43.0865845 145.375002,42.4860045 145.023438,42.0986328 C144.671873,41.7112611 144.108728,41.5175781 143.333984,41.5175781 C142.767575,41.5175781 142.232099,41.6022127 141.727539,41.7714844 C141.222979,41.9407561 140.749351,42.1295563 140.306641,42.3378906 L139.769531,41.0195312 C140.309899,40.7330715 140.899085,40.5084644 141.537109,40.3457031 C142.175133,40.1829419 142.806637,40.1015625 143.431641,40.1015625 C144.72722,40.1015625 145.690752,40.388018 146.322266,40.9609375 C146.953779,41.533857 147.269531,42.4453063 147.269531,43.6953125 L147.269531,51 L145.990234,51 Z M142.367188,49.7792969 C143.350265,49.7792969 144.12337,49.514 144.686523,48.9833984 C145.249677,48.4527968 145.53125,47.6992236 145.53125,46.7226562 L145.53125,45.7558594 L143.949219,45.8242188 C142.718744,45.8697919 141.821943,46.0651024 141.258789,46.4101562 C140.695635,46.7552101 140.414062,47.2988244 140.414062,48.0410156 C140.414062,48.6009143 140.584959,49.0305975 140.926758,49.3300781 C141.268556,49.6295588 141.748695,49.7792969 142.367188,49.7792969 Z M154.173828,49.7597656 C154.401694,49.7597656 154.668618,49.7369794 154.974609,49.6914062 C155.2806,49.6458331 155.511718,49.5937503 155.667969,49.5351562 L155.667969,50.8828125 C155.505208,50.9544274 155.252931,51.0244137 154.911133,51.0927734 C154.569334,51.1611332 154.222658,51.1953125 153.871094,51.1953125 C151.774729,51.1953125 150.726562,50.0918079 150.726562,47.8847656 L150.726562,41.6445312 L149.212891,41.6445312 L149.212891,40.8046875 L150.746094,40.1015625 L151.449219,37.8164062 L152.494141,37.8164062 L152.494141,40.2773438 L155.589844,40.2773438 L155.589844,41.6445312 L152.494141,41.6445312 L152.494141,47.8359375 C152.494141,48.4544302 152.642251,48.9296858 152.938477,49.2617188 C153.234702,49.5937517 153.646482,49.7597656 154.173828,49.7597656 Z M159.564453,51 L157.806641,51 L157.806641,40.2773438 L159.564453,40.2773438 L159.564453,51 Z M157.669922,37.3769531 C157.669922,36.9863262 157.769205,36.7031259 157.967773,36.5273438 C158.166342,36.3515616 158.412108,36.2636719 158.705078,36.2636719 C158.978517,36.2636719 159.217772,36.3515616 159.422852,36.5273438 C159.627931,36.7031259 159.730469,36.9863262 159.730469,37.3769531 C159.730469,37.7610696 159.627931,38.0442699 159.422852,38.2265625 C159.217772,38.4088551 158.978517,38.5 158.705078,38.5 C158.412108,38.5 158.166342,38.4088551 157.967773,38.2265625 C157.769205,38.0442699 157.669922,37.7610696 157.669922,37.3769531 Z M165.326172,51 L161.263672,40.2773438 L163.148438,40.2773438 L165.423828,46.5957031 C165.873049,47.8652407 166.159505,48.8124969 166.283203,49.4375 L166.361328,49.4375 C166.380859,49.3528642 166.405273,49.2568365 166.43457,49.1494141 C166.463867,49.0419917 166.498047,48.9248053 166.537109,48.7978516 C166.576172,48.6708978 166.817055,47.9368557 167.259766,46.5957031 L169.544922,40.2773438 L171.419922,40.2773438 L167.347656,51 L165.326172,51 Z M177.679688,51.1953125 C176.071607,51.1953125 174.810226,50.7086637 173.895508,49.7353516 C172.98079,48.7620394 172.523438,47.4225346 172.523438,45.7167969 C172.523438,43.9980383 172.949866,42.6292369 173.802734,41.6103516 C174.655603,40.5914663 175.807935,40.0820312 177.259766,40.0820312 C178.607429,40.0820312 179.681637,40.5165972 180.482422,41.3857422 C181.283207,42.2548872 181.683594,43.4316332 181.683594,44.9160156 L181.683594,45.9804688 L174.339844,45.9804688 C174.372396,47.1979228 174.681638,48.1223927 175.267578,48.7539062 C175.853519,49.3854198 176.683588,49.7011719 177.757812,49.7011719 C178.330732,49.7011719 178.874346,49.6507167 179.388672,49.5498047 C179.902997,49.4488927 180.505205,49.2519546 181.195312,48.9589844 L181.195312,50.5019531 C180.602862,50.7558606 180.046227,50.9348953 179.525391,51.0390625 C179.004555,51.1432297 178.389326,51.1953125 177.679688,51.1953125 Z M177.240234,41.5175781 C176.400386,41.5175781 175.736331,41.7877577 175.248047,42.328125 C174.759763,42.8684923 174.470053,43.6204379 174.378906,44.5839844 L179.837891,44.5839844 C179.82487,43.5813752 179.593752,42.8196641 179.144531,42.2988281 C178.69531,41.7779922 178.060551,41.5175781 177.240234,41.5175781 Z" id="Initiative" fill="#FFFFFF" fill-rule="nonzero"></path>
            <path d="M237.541016,51 L235.724609,51 L232.941406,41.6445312 C232.531248,40.2512951 232.290365,39.3105493 232.21875,38.8222656 C232.114583,39.5709673 231.886721,40.5312441 231.535156,41.703125 L228.839844,51 L227.023438,51 L223.244141,36.7226562 L225.119141,36.7226562 L227.335938,45.4433594 C227.635418,46.582688 227.86328,47.7154892 228.019531,48.8417969 C228.162761,47.7740832 228.416665,46.6054751 228.78125,45.3359375 L231.300781,36.7226562 L233.15625,36.7226562 L235.783203,45.4042969 C236.121746,46.5306046 236.382161,47.6764265 236.564453,48.8417969 C236.66862,47.9433549 236.899738,46.8040434 237.257812,45.4238281 L239.464844,36.7226562 L241.339844,36.7226562 L237.541016,51 Z M252.111328,51 L250.392578,46.5761719 L244.728516,46.5761719 L243.029297,51 L241.212891,51 L246.789062,36.6640625 L248.410156,36.6640625 L253.976562,51 L252.111328,51 Z M249.855469,44.984375 L248.253906,40.6582031 L247.570312,38.5195312 C247.374999,39.3007852 247.169923,40.0136687 246.955078,40.6582031 L245.333984,44.984375 L249.855469,44.984375 Z M259.953125,51 L254.796875,51 L254.796875,49.9648438 L256.476562,49.5839844 L256.476562,38.1582031 L254.796875,37.7578125 L254.796875,36.7226562 L259.953125,36.7226562 L259.953125,37.7578125 L258.273438,38.1582031 L258.273438,49.5839844 L259.953125,49.9648438 L259.953125,51 Z" id="WAI" fill="#FFFFFF" fill-rule="nonzero"></path>
        </g>
    </g>
</svg>